999
FreeCAD v0.19 24291 (Git)
  0
SECTION
  2
HEADER
  9
$ACADVER
  1
AC1014
  9
$ACADMAINTVER
 70
     9
  9
$DWGCODEPAGE
  3
ANSI_1252
  9
$TEXTSTYLE
  7
STANDARD
  9
$DIMSTYLE
  2
STANDARD
  9
$DIMTXSTY
  7
STANDARD
  9
$CMLSTYLE
  2
STANDARD
  9
$PEXTMAX
 10
50
 20
50
 30
50
  9
$PEXTMIN
 10
0
 20
0
 30
0
  9
$HANDSEED
  5
FFFF
  0
ENDSEC
  0
SECTION
  2
CLASSES
  0
CLASS
  1
ACDBDICTIONARYWDFLT
  2
AcDbDictionaryWithDefault
  3
ObjectDBX Classes
 90
        0
280
     0
281
     0
  0
CLASS
  1
XRECORD
  2
AcDbXrecord
  3
ObjectDBX Classes
 90
        0
280
     0
281
     0
  0
CLASS
  1
LWPOLYLINE
  2
AcDbPolyline
  3
ObjectDBX Classes
 90
        0
280
     0
281
     1
  0
ENDSEC
  0
SECTION
  2
TABLES
  0
TABLE
  2
VPORT
  5
20
330
0
100
AcDbSymbolTable
 70
     1
  0
VPORT
  5
21
330
20
100
AcDbSymbolTableRecord
100
AcDbViewportTableRecord
  2
*ACTIVE
 70
     0
  0
ENDTAB
  0
TABLE
  2
LTYPE
  5
22
330
0
100
AcDbSymbolTable
 70
     1
  0
LTYPE
  5
23
330
21
100
AcDbSymbolTableRecord
100
AcDbLinetypeTableRecord
  2
BYBLOCK
 70
     0
  3

 72
    65
 73
     0
 40
0.0
  0
LTYPE
  5
24
330
21
100
AcDbSymbolTableRecord
100
AcDbLinetypeTableRecord
  2
BYLAYER
 70
     0
  3

 72
    65
 73
     0
 40
0.0
  0
LTYPE
  5
25
330
21
100
AcDbSymbolTableRecord
100
AcDbLinetypeTableRecord
  2
CONTINUOUS
 70
     0
  3
Solid line
 72
    65
 73
     0
 40
0.0
  0
ENDTAB
  0
TABLE
  2
LAYER
  5
A35
330
0
100
AcDbSymbolTable
 70
3
  0
LAYER
  5
A36
330
A35
100
AcDbSymbolTableRecord
100
AcDbLayerTableRecord
  2
0
 70
   0
 62
   7
  6
CONTINUOUS
  0
LAYER
  5
A37
330
A35
100
AcDbSymbolTableRecord
100
AcDbLayerTableRecord
  2
none
 70
    0
 62
    7
  6
CONTINUOUS
  0
LAYER
  5
A38
330
A35
100
AcDbSymbolTableRecord
100
AcDbLayerTableRecord
  2
Sketch
 70
    0
 62
    7
  6
CONTINUOUS
  0
ENDTAB
  0
TABLE
  2
STYLE
  5
70
330
0
100
AcDbSymbolTable
 70
     2
  0
STYLE
  5
71
330
70
100
AcDbSymbolTableRecord
100
AcDbTextStyleTableRecord
  2
STANDARD
 70
     0
 40
0.0
 41
1.0
 50
0.0
 71
     0
 42
2.5
  3
arial.ttf
  4

  0
STYLE
  5
72
330
70
100
AcDbSymbolTableRecord
100
AcDbTextStyleTableRecord
  2
ANNOTATIVE
 70
     0
 40
0.0
 41
1.0
 50
0.0
 71
     0
 42
2.5
  3
arial.ttf
  4

  0
ENDTAB
  0
TABLE
  2
VIEW
  5
73
330
0
100
AcDbSymbolTable
 70
     0
  0
ENDTAB
  0
TABLE
  2
UCS
  5
74
330
0
100
AcDbSymbolTable
 70
     0
  0
ENDTAB
  0
TABLE
  2
APPID
  5
75
330
0
100
AcDbSymbolTable
 70
     2
  0
APPID
  5
76
330
75
100
AcDbSymbolTableRecord
100
AcDbRegAppTableRecord
  2
ACAD
 70
     0
  0
APPID
  5
77
330
75
100
AcDbSymbolTableRecord
100
AcDbRegAppTableRecord
  2
ACADANNOTATIVE
 70
     0
  0
ENDTAB
  0
TABLE
  2
DIMSTYLE
  5
78
330
0
100
AcDbSymbolTable
 70
     2
  0
DIMSTYLE
105
79
330
78
100
AcDbSymbolTableRecord
100
AcDbDimStyleTableRecord
  2
STANDARD
 70
     0
  3

  4

  5

  6

  7

 40
0.0
 41
2.5
 42
0.625
 43
3.75
 44
1.25
 45
0.0
 46
0.0
 47
0.0
 48
0.0
140
2.5
141
2.5
142
0.0
143
0.03937007874016
144
1.0
145
0.0
146
1.0
147
0.625
 71
     0
 72
     0
 73
     0
 74
     0
 75
     0
 76
     0
 77
     1
 78
     8
170
     0
171
     3
172
     1
173
     0
174
     0
175
     0
176
     0
177
     0
178
     0
270
     2
271
     2
272
     2
273
     2
274
     3
340
71
275
     0
280
     0
281
     0
282
     0
283
     0
284
     8
285
     0
286
     0
287
     3
288
     0
  0
ENDTAB
  0
TABLE
  2
BLOCK_RECORD
  5
A01
330
0
100
AcDbSymbolTable
  70
5
  0
BLOCK_RECORD
  5
A02
330
A01
100
AcDbSymbolTableRecord
100
AcDbBlockTableRecord
  2
*MODEL_SPACE
  0
BLOCK_RECORD
  5
A03
330
A01
100
AcDbSymbolTableRecord
100
AcDbBlockTableRecord
  2
*PAPER_SPACE
  0
ENDTAB
  0
ENDSEC
  0
SECTION
  2
BLOCKS
  0
BLOCK
  5
A04
330
A02
100
AcDbEntity
  8
0
100
AcDbBlockBegin
  2
*MODEL_SPACE
 70
   0
 10
0
 20
0
 30
0
  3
*MODEL_SPACE
  1
 
  0
ENDBLK
  5
A05
330
A02
100
AcDbEntity
  8
0
100
AcDbBlockEnd
  0
BLOCK
  5
A06
330
A03
100
AcDbEntity
 67
1
  8
0
100
AcDbBlockBegin
  2
*PAPER_SPACE
 70
   0
 10
0
 20
0
 30
0
  3
*PAPER_SPACE
  1
 
  0
ENDBLK
  5
A07
330
A03
100
AcDbEntity
 67
    1
  8
0
100
AcDbBlockEnd
  0
ENDSEC
  0
SECTION
  2
ENTITIES
  0
LINE
  5
A08
330
A02
100
AcDbEntity
  8
Sketch
100
AcDbLine
 10
274.631
 20
86.6955
 30
0
 11
274.631
 21
81.1277
 31
0
  0
ARC
  5
A09
330
A02
100
AcDbEntity
  8
Sketch
100
AcDbCircle
 10
282.131
 20
83.9116
 30
0
 40
8
100
AcDbArc
 50
-159.636
 51
-20.3641
  0
LINE
  5
A0A
330
A02
100
AcDbEntity
  8
Sketch
100
AcDbLine
 10
289.631
 20
81.1277
 30
0
 11
289.631
 21
86.6955
 31
0
  0
ARC
  5
A0B
330
A02
100
AcDbEntity
  8
Sketch
100
AcDbCircle
 10
282.131
 20
83.9116
 30
0
 40
8
100
AcDbArc
 50
20.3641
 51
159.636
  0
LINE
  5
A0C
330
A02
100
AcDbEntity
  8
Sketch
100
AcDbLine
 10
303.959
 20
86.6955
 30
0
 11
303.959
 21
81.1277
 31
0
  0
ARC
  5
A0D
330
A02
100
AcDbEntity
  8
Sketch
100
AcDbCircle
 10
311.459
 20
83.9116
 30
0
 40
8
100
AcDbArc
 50
-159.636
 51
-20.3641
  0
LINE
  5
A0E
330
A02
100
AcDbEntity
  8
Sketch
100
AcDbLine
 10
318.959
 20
81.1277
 30
0
 11
318.959
 21
86.6955
 31
0
  0
ARC
  5
A0F
330
A02
100
AcDbEntity
  8
Sketch
100
AcDbCircle
 10
311.459
 20
83.9116
 30
0
 40
8
100
AcDbArc
 50
20.3641
 51
159.636
  0
LINE
  5
A10
330
A02
100
AcDbEntity
  8
Sketch
100
AcDbLine
 10
274.631
 20
35.8723
 30
0
 11
274.631
 21
30.3045
 31
0
  0
ARC
  5
A11
330
A02
100
AcDbEntity
  8
Sketch
100
AcDbCircle
 10
282.131
 20
33.0884
 30
0
 40
8
100
AcDbArc
 50
-159.636
 51
-20.3641
  0
LINE
  5
A12
330
A02
100
AcDbEntity
  8
Sketch
100
AcDbLine
 10
289.631
 20
30.3045
 30
0
 11
289.631
 21
35.8723
 31
0
  0
ARC
  5
A13
330
A02
100
AcDbEntity
  8
Sketch
100
AcDbCircle
 10
282.131
 20
33.0884
 30
0
 40
8
100
AcDbArc
 50
20.3641
 51
159.636
  0
LINE
  5
A14
330
A02
100
AcDbEntity
  8
Sketch
100
AcDbLine
 10
303.959
 20
35.8723
 30
0
 11
303.959
 21
30.3045
 31
0
  0
ARC
  5
A15
330
A02
100
AcDbEntity
  8
Sketch
100
AcDbCircle
 10
311.459
 20
33.0884
 30
0
 40
8
100
AcDbArc
 50
-159.636
 51
-20.3641
  0
LINE
  5
A16
330
A02
100
AcDbEntity
  8
Sketch
100
AcDbLine
 10
318.959
 20
30.3045
 30
0
 11
318.959
 21
35.8723
 31
0
  0
ARC
  5
A17
330
A02
100
AcDbEntity
  8
Sketch
100
AcDbCircle
 10
311.459
 20
33.0884
 30
0
 40
8
100
AcDbArc
 50
20.3641
 51
159.636
  0
CIRCLE
  5
A18
330
A02
100
AcDbEntity
  8
Sketch
100
AcDbCircle
 10
92.9704
 20
82.3288
 40
6.35
  0
CIRCLE
  5
A19
330
A02
100
AcDbEntity
  8
Sketch
100
AcDbCircle
 10
92.9704
 20
34.6712
 40
6.35
  0
LINE
  5
A1A
330
A02
100
AcDbEntity
  8
Sketch
100
AcDbLine
 10
114.884
 20
95.5788
 30
0
 11
160.384
 21
95.5788
 31
0
  0
LINE
  5
A1B
330
A02
100
AcDbEntity
  8
Sketch
100
AcDbLine
 10
160.384
 20
95.5788
 30
0
 11
160.384
 21
69.0788
 31
0
  0
LINE
  5
A1C
330
A02
100
AcDbEntity
  8
Sketch
100
AcDbLine
 10
160.384
 20
69.0788
 30
0
 11
114.884
 21
69.0788
 31
0
  0
LINE
  5
A1D
330
A02
100
AcDbEntity
  8
Sketch
100
AcDbLine
 10
114.884
 20
69.0788
 30
0
 11
114.884
 21
95.5788
 31
0
  0
LINE
  5
A1E
330
A02
100
AcDbEntity
  8
Sketch
100
AcDbLine
 10
114.884
 20
47.9212
 30
0
 11
160.384
 21
47.9212
 31
0
  0
LINE
  5
A1F
330
A02
100
AcDbEntity
  8
Sketch
100
AcDbLine
 10
160.384
 20
47.9212
 30
0
 11
160.384
 21
21.4212
 31
0
  0
LINE
  5
A20
330
A02
100
AcDbEntity
  8
Sketch
100
AcDbLine
 10
160.384
 20
21.4212
 30
0
 11
114.884
 21
21.4212
 31
0
  0
LINE
  5
A21
330
A02
100
AcDbEntity
  8
Sketch
100
AcDbLine
 10
114.884
 20
21.4212
 30
0
 11
114.884
 21
47.9212
 31
0
  0
CIRCLE
  5
A22
330
A02
100
AcDbEntity
  8
Sketch
100
AcDbCircle
 10
405.503
 20
39.1541
 40
11.25
  0
CIRCLE
  5
A23
330
A02
100
AcDbEntity
  8
Sketch
100
AcDbCircle
 10
385.924
 20
89.1273
 40
3.875
  0
CIRCLE
  5
A24
330
A02
100
AcDbEntity
  8
Sketch
100
AcDbCircle
 10
425.083
 20
89.1273
 40
3.875
  0
LINE
  5
A25
330
A02
100
AcDbEntity
  8
Sketch
100
AcDbLine
 10
0
 20
117
 30
0
 11
500
 21
117
 31
0
  0
LINE
  5
A26
330
A02
100
AcDbEntity
  8
Sketch
100
AcDbLine
 10
500
 20
117
 30
0
 11
500
 21
0
 31
0
  0
LINE
  5
A27
330
A02
100
AcDbEntity
  8
Sketch
100
AcDbLine
 10
500
 20
0
 30
0
 11
0
 21
0
 31
0
  0
LINE
  5
A28
330
A02
100
AcDbEntity
  8
Sketch
100
AcDbLine
 10
0
 20
0
 30
0
 11
0
 21
117
 31
0
  0
LINE
  5
A29
330
A02
100
AcDbEntity
  8
Sketch
100
AcDbLine
 10
274.631
 20
61.2839
 30
0
 11
274.631
 21
55.7161
 31
0
  0
ARC
  5
A2A
330
A02
100
AcDbEntity
  8
Sketch
100
AcDbCircle
 10
282.131
 20
58.5
 30
0
 40
8
100
AcDbArc
 50
-159.636
 51
-20.3641
  0
LINE
  5
A2B
330
A02
100
AcDbEntity
  8
Sketch
100
AcDbLine
 10
289.631
 20
55.7161
 30
0
 11
289.631
 21
61.2839
 31
0
  0
ARC
  5
A2C
330
A02
100
AcDbEntity
  8
Sketch
100
AcDbCircle
 10
282.131
 20
58.5
 30
0
 40
8
100
AcDbArc
 50
20.3641
 51
159.636
  0
CIRCLE
  5
A2D
330
A02
100
AcDbEntity
  8
Sketch
100
AcDbCircle
 10
75.4704
 20
108.5
 40
1.75
  0
CIRCLE
  5
A2E
330
A02
100
AcDbEntity
  8
Sketch
100
AcDbCircle
 10
110.47
 20
108.5
 40
1.75
  0
CIRCLE
  5
A2F
330
A02
100
AcDbEntity
  8
Sketch
100
AcDbCircle
 10
110.47
 20
8.5
 40
1.75
  0
CIRCLE
  5
A30
330
A02
100
AcDbEntity
  8
Sketch
100
AcDbCircle
 10
75.4704
 20
8.5
 40
1.75
  0
CIRCLE
  5
A31
330
A02
100
AcDbEntity
  8
Sketch
100
AcDbCircle
 10
125
 20
6
 40
1.75
  0
CIRCLE
  5
A32
330
A02
100
AcDbEntity
  8
Sketch
100
AcDbCircle
 10
375
 20
6
 40
1.75
  0
CIRCLE
  5
A33
330
A02
100
AcDbEntity
  8
Sketch
100
AcDbCircle
 10
375
 20
111
 40
1.75
  0
CIRCLE
  5
A34
330
A02
100
AcDbEntity
  8
Sketch
100
AcDbCircle
 10
125
 20
111
 40
1.75
  0
ENDSEC
  0
SECTION
  2
OBJECTS
  0
DICTIONARY
  5
F000
330
0
100
AcDbDictionary
  3
ACAD_GROUP
350
F001
  0
DICTIONARY
  5
F001
330
F000
100
AcDbDictionary
  0
ENDSEC
  0
EOF